PathFileType	4	(X/Y/Z)	D:\Share\Shared_Data\Ergonomics\Sit To Stand Pertubation\S2\Perturbed.trc
DataRate	CameraRate	NumFrames	NumMarkers	Units	OrigDataRate	OrigDataStartFrame	OrigNumFrames	
100	100	9	18	m	100	14456	221
Frame#	Time	R_Toe			R_ASIS			R_Pelvis			V_Sacral			L_Pelvis			L_ASIS			Clavical			R_Acromium			L_Acromium			Sternum			Torso			R_Thigh_Med			R_Thigh_Lat			R_Thigh			R_Shank_Med			R_Shank_Lat			R_Shank			R_Heel			
		X1	Y1	Z1	X2	Y2	Z2	X3	Y3	Z3	X4	Y4	Z4	X5	Y5	Z5	X6	Y6	Z6	X7	Y7	Z7	X8	Y8	Z8	X9	Y9	Z9	X10	Y10	Z10	X11	Y11	Z11	X12	Y12	Z12	X13	Y13	Z13	X14	Y14	Z14	X15	Y15	Z15	X16	Y16	Z16	X17	Y17	Z17	X18	Y18	Z18	

14456	144.55	0.4343616	0.064644226	0.14785585	0.43311264	1.0251412	0.14904243	0.35784695	1.0256357	0.19747099	0.2090965	1.0199144	0.04037661	0.2966792	1.0243619	-0.14484637	0.39437784	1.0353804	-0.1251393	0.42443906	1.4534404	0.0088627396	0.33359033	1.4790536	0.21975273	0.30650702	1.4814115	-0.17108827	0.47350247	1.2952839	0.0028094113	0.42846539	1.4144553	-0.10708749	0.33639801	0.49504456	0.096040565	0.32353436	0.51980737	0.18541595	0.42365887	0.67554126	0.16642538	0.30125546	0.10858038	0.105507	0.27459253	0.09976368	0.19529646	0.28917551	0.37434836	0.21631926	0.19752641	0.058481537	0.14342213
14457	144.56	0.43444543	0.064577263	0.14783327	0.43439023	1.0253046	0.14945863	0.35910382	1.0257095	0.19786656	0.21045889	1.0197457	0.040734081	0.29789764	1.024254	-0.1445405	0.39570844	1.035437	-0.12476856	0.42440549	1.4535896	0.0088684883	0.33336508	1.4790558	0.21969925	0.30637503	1.4811832	-0.17107718	0.47395367	1.2955668	0.0028885248	0.42853311	1.4145681	-0.10707702	0.33754999	0.49515472	0.096160332	0.32469525	0.51983325	0.18553625	0.42502249	0.67563757	0.16664259	0.30142633	0.10861347	0.10539899	0.27473456	0.09987867	0.19516251	0.29003934	0.37444342	0.21636682	0.19760402	0.058593792	0.14335843
14458	144.57	0.43452893	0.064514328	0.14781154	0.4355585	1.0254749	0.14986563	0.3602507	1.0257924	0.19823349	0.21173827	1.0196371	0.041076595	0.29903751	1.0242023	-0.14422891	0.39696658	1.0355262	-0.12441336	0.42443347	1.4537527	0.008879528	0.33321469	1.479135	0.21964102	0.30634198	1.4810198	-0.17106255	0.47441132	1.2958534	0.0029780562	0.42866354	1.4147006	-0.10705858	0.33871219	0.49526407	0.096255623	0.32582944	0.51986951	0.18562985	0.42631628	0.67574933	0.1669155	0.30160321	0.10864828	0.10527841	0.27487863	0.10000757	0.19501805	0.29087781	0.37454916	0.21637358	0.1976837	0.05872506	0.1432903
14459	144.58	0.43461096	0.064456116	0.14779051	0.43663831	1.0256428	0.15025719	0.36130121	1.0258734	0.19857019	0.21294574	1.0195687	0.041399651	0.3001142	1.0241918	-0.14391287	0.39817319	1.0356327	-0.12408058	0.42451801	1.4539158	0.0088986712	0.33313455	1.4792736	0.21957976	0.30640344	1.4809026	-0.17104308	0.47487256	1.2961299	0.0030814161	0.42885178	1.414837	-0.1070293	0.33985214	0.49537265	0.096330055	0.32690405	0.51991589	0.18569891	0.42752368	0.67586456	0.16723335	0.30178061	0.1086814	0.10514579	0.27501953	0.10014783	0.19486546	0.29166138	0.37466544	0.21634111	0.19776572	0.058887913	0.14322128
14460	144.59	0.43469028	0.064402763	0.1477702	0.43765207	1.0258005	0.15062926	0.36227295	1.0259447	0.19887654	0.21409163	1.0195221	0.041698063	0.30114636	1.0242064	-0.14359412	0.39934476	1.0357393	-0.12377575	0.42465311	1.4540656	0.0089274158	0.33311865	1.4794509	0.21951752	0.30655331	1.4808121	-0.1710199	0.47533362	1.2963837	0.0032007284	0.42909125	1.4149614	-0.10698728	0.34094293	0.49548071	0.096388184	0.32789215	0.51997101	0.1857464	0.42863275	0.67597388	0.16758389	0.3019541	0.10871017	0.10500288	0.27515314	0.1002965	0.19470688	0.29236685	0.37479181	0.21627274	0.19784959	0.059095406	0.14315526
14461	144.6	0.43476572	0.064354111	0.14775069	0.43861877	1.0259417	0.15097911	0.36318643	1.0260006	0.19915242	0.21518472	1.0194806	0.041965885	0.30215286	1.02423	-0.14327722	0.40048813	1.0358297	-0.12350263	0.42483255	1.4541909	0.0089659805	0.33315979	1.4796473	0.21945663	0.306784	1.4807306	-0.17099551	0.47579218	1.2966034	0.0033363197	0.42937463	1.4150596	-0.10693233	0.34196259	0.49558826	0.096432816	0.32877512	0.52003314	0.18577589	0.42963754	0.67606989	0.16795326	0.30211948	0.10873283	0.10485261	0.27527588	0.10044976	0.19454437	0.29297946	0.37492691	0.21617363	0.19793359	0.059356094	0.14309567
14462	144.61	0.43483633	0.064309731	0.14773232	0.43955127	1.0260604	0.15130446	0.36406323	1.026038	0.19939696	0.21623172	1.0194299	0.042197166	0.30314917	1.0242479	-0.14297017	0.40159619	1.0358905	-0.12326349	0.42505084	1.4542837	0.0090137243	0.33324997	1.4798419	0.21939954	0.30708646	1.4806407	-0.17097336	0.4762482	1.2967811	0.0034866841	0.42969495	1.4151191	-0.10686595	0.34289487	0.49569424	0.09646479	0.32954428	0.52009894	0.18579076	0.43053879	0.67614771	0.16832611	0.30227332	0.10874832	0.10469865	0.2753851	0.10060285	0.19438063	0.29349359	0.37506802	0.21605058	0.19801508	0.059667278	0.1430443
14463	144.62	0.43490134	0.064269035	0.14771579	0.4404566	1.0261531	0.15160321	0.36492288	1.0260546	0.19960854	0.21723714	1.019358	0.042387135	0.30414426	1.0242473	-0.14268317	0.40265152	1.0359122	-0.12305906	0.42530377	1.45434	0.0090697508	0.3333801	1.4800166	0.21934842	0.30745001	1.4805289	-0.17095715	0.47670428	1.2969127	0.0036486199	0.43004599	1.4151326	-0.10679089	0.34372958	0.49579617	0.096483856	0.33020178	0.52016431	0.18579391	0.4313432	0.6762038	0.1686861	0.3024129	0.10875616	0.10454501	0.27547906	0.10075078	0.1942187	0.29391284	0.37521036	0.21591173	0.19809195	0.060009216	0.14299928
14464	144.63	0.43495999	0.064231354	0.14770193	0.44133704	1.0262167	0.15187335	0.36577896	1.0260504	0.19978513	0.21820357	1.019257	0.042532509	0.30513953	1.024218	-0.1424265	0.40363922	1.0358921	-0.1228885	0.42558798	1.4543591	0.009133215	0.33354108	1.4801544	0.21930476	0.30786319	1.4803848	-0.17094943	0.47716431	1.2969972	0.0038175533	0.43042209	1.4150961	-0.10671044	0.34446268	0.49589011	0.096489548	0.33075861	0.52022437	0.18578748	0.43206189	0.67623602	0.16901668	0.30253683	0.10875602	0.10439516	0.27555716	0.1008891	0.19406192	0.29424881	0.37534796	0.21576631	0.19816431	0.060345165	0.14295404
